<mxfile host="Electron" modified="2023-08-30T09:59:53.613Z" agent="Mozilla/5.0 (Windows NT 10.0; Win64; x64) AppleWebKit/537.36 (KHTML, like Gecko) draw.io/21.6.8 Chrome/114.0.5735.289 Electron/25.5.0 Safari/537.36" etag="GMsHzzVcRjXGiflLb9F1" version="21.6.8" type="device">
  <diagram name="Page-1" id="7e0a89b8-554c-2b80-1dc8-d5c74ca68de4">
    <mxGraphModel dx="637" dy="379" grid="1" gridSize="10" guides="1" tooltips="1" connect="1" arrows="1" fold="1" page="1" pageScale="1" pageWidth="1100" pageHeight="850" background="none" math="0" shadow="0">
      <root>
        <mxCell id="0" />
        <mxCell id="1" parent="0" />
        <mxCell id="czpDiP3rQkUZ906eP7K_-1" value="Yellow" style="verticalLabelPosition=bottom;shadow=0;dashed=0;align=center;html=1;verticalAlign=top;shape=mxgraph.electrical.opto_electronics.led_1;pointerEvents=1;" vertex="1" parent="1">
          <mxGeometry x="530" y="90" width="100" height="65" as="geometry" />
        </mxCell>
        <mxCell id="czpDiP3rQkUZ906eP7K_-2" value="White" style="verticalLabelPosition=bottom;shadow=0;dashed=0;align=center;html=1;verticalAlign=top;shape=mxgraph.electrical.opto_electronics.led_1;pointerEvents=1;" vertex="1" parent="1">
          <mxGeometry x="530" y="210.5" width="100" height="65" as="geometry" />
        </mxCell>
        <mxCell id="czpDiP3rQkUZ906eP7K_-3" value="Red" style="verticalLabelPosition=bottom;shadow=0;dashed=0;align=center;html=1;verticalAlign=top;shape=mxgraph.electrical.opto_electronics.led_1;pointerEvents=1;" vertex="1" parent="1">
          <mxGeometry x="530" y="339.5" width="100" height="65" as="geometry" />
        </mxCell>
        <mxCell id="czpDiP3rQkUZ906eP7K_-4" value="Blue" style="verticalLabelPosition=bottom;shadow=0;dashed=0;align=center;html=1;verticalAlign=top;shape=mxgraph.electrical.opto_electronics.led_1;pointerEvents=1;" vertex="1" parent="1">
          <mxGeometry x="530" y="449.5" width="100" height="65" as="geometry" />
        </mxCell>
        <mxCell id="czpDiP3rQkUZ906eP7K_-9" style="edgeStyle=orthogonalEdgeStyle;rounded=0;orthogonalLoop=1;jettySize=auto;html=1;exitX=1;exitY=0.5;exitDx=0;exitDy=0;exitPerimeter=0;entryX=0;entryY=0.54;entryDx=0;entryDy=0;entryPerimeter=0;endArrow=none;endFill=0;" edge="1" parent="1" source="czpDiP3rQkUZ906eP7K_-5" target="czpDiP3rQkUZ906eP7K_-1">
          <mxGeometry relative="1" as="geometry" />
        </mxCell>
        <mxCell id="czpDiP3rQkUZ906eP7K_-5" value="220&amp;nbsp;&lt;b style=&quot;border-color: var(--border-color); font-family: Verdana;&quot;&gt;立&lt;/b&gt;" style="pointerEvents=1;verticalLabelPosition=bottom;shadow=0;dashed=0;align=center;html=1;verticalAlign=top;shape=mxgraph.electrical.resistors.resistor_2;" vertex="1" parent="1">
          <mxGeometry x="390" y="115.5" width="118" height="20" as="geometry" />
        </mxCell>
        <mxCell id="czpDiP3rQkUZ906eP7K_-15" value="" style="edgeStyle=orthogonalEdgeStyle;rounded=0;orthogonalLoop=1;jettySize=auto;html=1;entryX=0;entryY=0.54;entryDx=0;entryDy=0;entryPerimeter=0;endArrow=none;endFill=0;" edge="1" parent="1" source="czpDiP3rQkUZ906eP7K_-10" target="czpDiP3rQkUZ906eP7K_-4">
          <mxGeometry relative="1" as="geometry" />
        </mxCell>
        <mxCell id="czpDiP3rQkUZ906eP7K_-10" value="220&amp;nbsp;&lt;b style=&quot;border-color: var(--border-color); font-family: Verdana;&quot;&gt;立&lt;/b&gt;" style="pointerEvents=1;verticalLabelPosition=bottom;shadow=0;dashed=0;align=center;html=1;verticalAlign=top;shape=mxgraph.electrical.resistors.resistor_2;" vertex="1" parent="1">
          <mxGeometry x="400" y="475" width="108" height="20" as="geometry" />
        </mxCell>
        <mxCell id="czpDiP3rQkUZ906eP7K_-14" value="" style="edgeStyle=orthogonalEdgeStyle;rounded=0;orthogonalLoop=1;jettySize=auto;html=1;entryX=0;entryY=0.54;entryDx=0;entryDy=0;entryPerimeter=0;endArrow=none;endFill=0;" edge="1" parent="1" source="czpDiP3rQkUZ906eP7K_-11" target="czpDiP3rQkUZ906eP7K_-3">
          <mxGeometry relative="1" as="geometry" />
        </mxCell>
        <mxCell id="czpDiP3rQkUZ906eP7K_-11" value="220&amp;nbsp;&lt;b style=&quot;border-color: var(--border-color); font-family: Verdana;&quot;&gt;立&lt;/b&gt;" style="pointerEvents=1;verticalLabelPosition=bottom;shadow=0;dashed=0;align=center;html=1;verticalAlign=top;shape=mxgraph.electrical.resistors.resistor_2;" vertex="1" parent="1">
          <mxGeometry x="390" y="364.5" width="113" height="20" as="geometry" />
        </mxCell>
        <mxCell id="czpDiP3rQkUZ906eP7K_-13" value="" style="edgeStyle=orthogonalEdgeStyle;rounded=0;orthogonalLoop=1;jettySize=auto;html=1;entryX=0;entryY=0.54;entryDx=0;entryDy=0;entryPerimeter=0;endArrow=none;endFill=0;" edge="1" parent="1" source="czpDiP3rQkUZ906eP7K_-12" target="czpDiP3rQkUZ906eP7K_-2">
          <mxGeometry relative="1" as="geometry" />
        </mxCell>
        <mxCell id="czpDiP3rQkUZ906eP7K_-12" value="220&amp;nbsp;&lt;b style=&quot;border-color: var(--border-color); font-family: Verdana;&quot;&gt;立&lt;/b&gt;" style="pointerEvents=1;verticalLabelPosition=bottom;shadow=0;dashed=0;align=center;html=1;verticalAlign=top;shape=mxgraph.electrical.resistors.resistor_2;" vertex="1" parent="1">
          <mxGeometry x="390" y="235" width="117" height="20" as="geometry" />
        </mxCell>
        <mxCell id="czpDiP3rQkUZ906eP7K_-16" value="SMC Electrical wiring" style="text;strokeColor=none;fillColor=none;html=1;fontSize=24;fontStyle=1;verticalAlign=middle;align=center;" vertex="1" parent="1">
          <mxGeometry x="20" y="10" width="271" height="40" as="geometry" />
        </mxCell>
        <mxCell id="czpDiP3rQkUZ906eP7K_-17" value="ARB" style="shadow=0;dashed=0;align=center;html=1;strokeWidth=1;shape=mxgraph.electrical.logic_gates.dual_inline_ic;whiteSpace=wrap;movable=1;resizable=1;rotatable=1;deletable=1;editable=1;locked=0;connectable=1;fontStyle=0;pinSpacing=20;pinLabelType=cust;labelCount=30;labelNames=,,,,,,,,,,,,,,,GND,,,,,,,,,,,D3,D2,D1,D0;" vertex="1" parent="1">
          <mxGeometry x="210" y="116.5" width="100" height="310" as="geometry" />
        </mxCell>
        <mxCell id="czpDiP3rQkUZ906eP7K_-18" value="" style="endArrow=none;html=1;rounded=0;entryX=0;entryY=0.5;entryDx=0;entryDy=0;entryPerimeter=0;exitX=1;exitY=0;exitDx=0;exitDy=10;exitPerimeter=0;" edge="1" parent="1" source="czpDiP3rQkUZ906eP7K_-17" target="czpDiP3rQkUZ906eP7K_-5">
          <mxGeometry width="50" height="50" relative="1" as="geometry">
            <mxPoint x="360" y="290" as="sourcePoint" />
            <mxPoint x="410" y="240" as="targetPoint" />
          </mxGeometry>
        </mxCell>
        <mxCell id="czpDiP3rQkUZ906eP7K_-20" value="" style="endArrow=none;html=1;rounded=0;exitX=1;exitY=0;exitDx=0;exitDy=30;exitPerimeter=0;entryX=0;entryY=0.5;entryDx=0;entryDy=0;entryPerimeter=0;edgeStyle=orthogonalEdgeStyle;" edge="1" parent="1" source="czpDiP3rQkUZ906eP7K_-17" target="czpDiP3rQkUZ906eP7K_-12">
          <mxGeometry width="50" height="50" relative="1" as="geometry">
            <mxPoint x="350" y="290" as="sourcePoint" />
            <mxPoint x="400" y="240" as="targetPoint" />
            <Array as="points">
              <mxPoint x="380" y="147" />
              <mxPoint x="380" y="245" />
            </Array>
          </mxGeometry>
        </mxCell>
        <mxCell id="czpDiP3rQkUZ906eP7K_-21" value="" style="endArrow=none;html=1;rounded=0;entryX=0;entryY=0.5;entryDx=0;entryDy=0;entryPerimeter=0;edgeStyle=orthogonalEdgeStyle;exitX=1;exitY=0;exitDx=0;exitDy=50;exitPerimeter=0;" edge="1" parent="1" source="czpDiP3rQkUZ906eP7K_-17" target="czpDiP3rQkUZ906eP7K_-11">
          <mxGeometry width="50" height="50" relative="1" as="geometry">
            <mxPoint x="330" y="160" as="sourcePoint" />
            <mxPoint x="400" y="240" as="targetPoint" />
            <Array as="points">
              <mxPoint x="360" y="167" />
              <mxPoint x="360" y="375" />
            </Array>
          </mxGeometry>
        </mxCell>
        <mxCell id="czpDiP3rQkUZ906eP7K_-22" value="" style="endArrow=none;html=1;rounded=0;entryX=0;entryY=0.5;entryDx=0;entryDy=0;entryPerimeter=0;edgeStyle=orthogonalEdgeStyle;exitX=1;exitY=0;exitDx=0;exitDy=70;exitPerimeter=0;" edge="1" parent="1" source="czpDiP3rQkUZ906eP7K_-17" target="czpDiP3rQkUZ906eP7K_-10">
          <mxGeometry width="50" height="50" relative="1" as="geometry">
            <mxPoint x="320" y="190" as="sourcePoint" />
            <mxPoint x="400" y="350" as="targetPoint" />
            <Array as="points">
              <mxPoint x="340" y="187" />
              <mxPoint x="340" y="485" />
            </Array>
          </mxGeometry>
        </mxCell>
        <mxCell id="czpDiP3rQkUZ906eP7K_-23" value="" style="endArrow=none;html=1;rounded=0;exitX=1;exitY=0.54;exitDx=0;exitDy=0;exitPerimeter=0;" edge="1" parent="1" source="czpDiP3rQkUZ906eP7K_-1">
          <mxGeometry width="50" height="50" relative="1" as="geometry">
            <mxPoint x="610" y="280" as="sourcePoint" />
            <mxPoint x="670" y="560" as="targetPoint" />
            <Array as="points">
              <mxPoint x="670" y="125" />
            </Array>
          </mxGeometry>
        </mxCell>
        <mxCell id="czpDiP3rQkUZ906eP7K_-24" value="" style="endArrow=oval;html=1;rounded=0;exitX=1;exitY=0.54;exitDx=0;exitDy=0;exitPerimeter=0;endFill=1;" edge="1" parent="1" source="czpDiP3rQkUZ906eP7K_-2">
          <mxGeometry width="50" height="50" relative="1" as="geometry">
            <mxPoint x="730" y="255" as="sourcePoint" />
            <mxPoint x="670" y="246" as="targetPoint" />
          </mxGeometry>
        </mxCell>
        <mxCell id="czpDiP3rQkUZ906eP7K_-25" value="" style="endArrow=oval;html=1;rounded=0;exitX=1;exitY=0.54;exitDx=0;exitDy=0;exitPerimeter=0;endFill=1;" edge="1" parent="1">
          <mxGeometry width="50" height="50" relative="1" as="geometry">
            <mxPoint x="630" y="484.71000000000004" as="sourcePoint" />
            <mxPoint x="670" y="484.71000000000004" as="targetPoint" />
          </mxGeometry>
        </mxCell>
        <mxCell id="czpDiP3rQkUZ906eP7K_-26" value="" style="endArrow=oval;html=1;rounded=0;exitX=1;exitY=0.54;exitDx=0;exitDy=0;exitPerimeter=0;endFill=1;" edge="1" parent="1">
          <mxGeometry width="50" height="50" relative="1" as="geometry">
            <mxPoint x="630" y="374.21" as="sourcePoint" />
            <mxPoint x="670" y="374.21" as="targetPoint" />
          </mxGeometry>
        </mxCell>
        <mxCell id="czpDiP3rQkUZ906eP7K_-27" value="" style="endArrow=none;html=1;rounded=0;" edge="1" parent="1">
          <mxGeometry width="50" height="50" relative="1" as="geometry">
            <mxPoint x="320" y="560" as="sourcePoint" />
            <mxPoint x="670" y="560" as="targetPoint" />
          </mxGeometry>
        </mxCell>
        <mxCell id="czpDiP3rQkUZ906eP7K_-28" value="" style="endArrow=none;html=1;rounded=0;edgeStyle=orthogonalEdgeStyle;entryX=1;entryY=0;entryDx=0;entryDy=290;entryPerimeter=0;" edge="1" parent="1" target="czpDiP3rQkUZ906eP7K_-17">
          <mxGeometry width="50" height="50" relative="1" as="geometry">
            <mxPoint x="320" y="560" as="sourcePoint" />
            <mxPoint x="320" y="410" as="targetPoint" />
            <Array as="points">
              <mxPoint x="320" y="406" />
            </Array>
          </mxGeometry>
        </mxCell>
      </root>
    </mxGraphModel>
  </diagram>
</mxfile>
